Coordinates
version=1
nRows=11
nColumns=36
inDegrees=yes

Units are S.I. units (second, meters, Newtons, ...)
If the header above contains a line with 'inDegrees', this indicates whether rotational values are in degrees (yes) or radians (no).

endheader
time	pelvis_tilt	pelvis_list	pelvis_rotation	pelvis_tx	pelvis_ty	pelvis_tz	hip_flexion_r	hip_adduction_r	hip_rotation_r	knee_angle_r	knee_angle_r_beta	ankle_angle_r	subtalar_angle_r	mtp_angle_r	hip_flexion_l	hip_adduction_l	hip_rotation_l	knee_angle_l	knee_angle_l_beta	ankle_angle_l	subtalar_angle_l	mtp_angle_l	lumbar_extension	lumbar_bending	lumbar_rotation	arm_flex_r	arm_add_r	arm_rot_r	elbow_flex_r	pro_sup_r	arm_flex_l	arm_add_l	arm_rot_l	elbow_flex_l	pro_sup_l
      0.00000000	     -1.48127200	     -4.49924589	      8.04751417	      0.48737403	      0.84593270	      0.39368347	      6.91506583	      3.96591262	     -0.87879055	      8.65404608	      0.15104160	     13.43635264	     -6.63244364	     -7.00972869	      4.86087848	     -0.93907827	     -2.72744032	      4.22131267	      0.07367580	     11.87034970	     -3.34031044	     -7.00972869	      8.13436805	      5.09655330	      2.76940729	     33.16073901	      2.47422603	     53.70087995	    124.96632457	    101.37889170	     26.90345145	      7.42083819	     63.66209015	    115.66328447	    103.66519385
      0.01666670	     -0.81972945	     -3.47893156	      7.82582786	      0.49593578	      0.84323913	      0.40201680	      6.48738018	      3.74148823	      0.75332994	      9.73878064	      0.16997379	     16.10350712	     -7.96207904	     -7.02266235	      3.90989008	      0.09810906	     -2.29745314	      4.16229466	      0.07264575	     12.71231474	     -4.54653681	     -7.02266235	      7.57836880	      4.52181029	      3.49264660	     34.47891927	      3.12365566	     57.17374535	    126.38841569	    101.51912617	     28.49127374	      5.31281323	     66.29537589	    118.48047232	    102.99399250
      0.03333330	     -1.37784491	     -1.98359925	      7.32293090	      0.50142522	      0.83972484	      0.40500243	      6.18981705	      2.42134409	      0.49927010	      9.17872665	      0.16019900	     16.71978248	     -7.40274930	     -7.08680179	      3.51940699	      1.68747617	     -3.03497188	      3.50507639	      0.06117512	     13.55251841	     -3.98818147	     -7.08680179	      8.62553998	      2.69690491	      4.53376727	     33.60069829	      4.48661036	     58.20626929	    126.57043766	     99.68324487	     28.43126932	      4.49357854	     67.05290881	    120.67400642	    100.21553457
      0.05000000	     -1.57815882	     -1.42277246	      6.71726856	      0.47917939	      0.84171246	      0.40229327	      7.06504501	      1.68714624	      0.24419486	      9.52976706	      0.16632581	     17.35454982	     -7.01088244	     -7.16628965	      3.74856582	      2.54114209	     -3.10908810	      3.03208762	      0.05291991	     13.52596840	     -3.84161047	     -7.16628965	      7.85746921	      2.43144704	      5.13226964	     34.26492602	      4.85225255	     59.17518784	    126.22639325	     95.49733186	     30.84556609	      4.45477408	     67.28781900	    119.85822390	     94.72762990
      0.06666670	     -1.41227931	     -1.37256734	      6.25686782	      0.48994758	      0.84224710	      0.40160528	      6.96271647	      1.64218024	      0.62218889	      9.55956414	      0.16684587	     16.94342756	     -6.70299357	     -7.23917229	      3.27848230	      2.66536229	     -3.56168905	      2.49115774	      0.04347890	     12.91472711	     -3.21366540	     -7.23917229	      7.87457252	      2.64986318	      6.17220215	     33.63148868	      4.70641201	     58.65603093	    126.22461458	     99.78116204	     31.28355015	      4.59579451	     68.45393059	    119.52194508	     91.41724318
      0.08333330	     -1.59432754	     -1.43621381	      5.81997372	      0.48852544	      0.84502574	      0.40184407	      7.31304205	      1.63879783	      0.74988045	      9.92155470	      0.17316380	     16.81059502	     -6.69582020	     -7.27477340	      3.35557941	      2.66808421	     -3.68960549	      2.42780998	      0.04237328	     12.54565297	     -2.92479063	     -7.27477340	      8.15968729	      3.01299989	      6.68870723	     32.86452986	      4.81980793	     59.11443184	    126.01857054	     98.05939693	     30.84514961	      4.74454993	     68.78094902	    119.21487893	     89.74648103
      0.10000000	     -1.63556350	     -1.47965804	      5.58583722	      0.48355711	      0.84646681	      0.40005998	      7.55243471	      1.59339760	      0.80083736	      9.85610096	      0.17202141	     16.60092422	     -6.49814537	     -7.27601847	      3.51855734	      2.67438323	     -3.75025997	      2.23680428	      0.03903960	     11.96848248	     -2.81018711	     -7.27601847	      7.89713660	      3.38877814	      6.70436195	     32.74445304	      4.75677976	     59.00823587	    125.85198700	     98.02358415	     30.60531858	      4.89772164	     68.74795469	    119.02121221	     89.69397579
      0.11666670	     -1.65933710	     -1.51049376	      5.47159445	      0.48992727	      0.84345350	      0.40271374	      7.42855776	      1.66117521	      0.91150478	      9.64288385	      0.16830007	     16.38989969	     -6.21925746	     -7.27758812	      3.39970399	      2.63758500	     -3.87750223	      2.00473853	      0.03498929	     11.43646671	     -2.72195609	     -7.27758812	      8.05356246	      3.47936883	      6.81419411	     32.81440481	      4.89249084	     59.05188958	    125.75458502	     97.94311454	     30.26544705	      5.13361556	     68.79157376	    118.91228222	     89.60574894
      0.13333330	     -1.70712342	     -1.50059172	      5.34793286	      0.48448281	      0.84393480	      0.40051143	      7.48199340	      1.58952479	      0.85447829	      9.58391622	      0.16727089	     16.34844766	     -6.21635747	     -7.27783881	      3.52064159	      2.70200615	     -3.86395969	      1.94102250	      0.03387723	     11.31837249	     -2.68105122	     -7.27783881	      7.96875872	      3.61048286	      6.83793142	     32.96310391	      4.86035152	     59.03039774	    125.74850206	     97.92397778	     30.27153602	      5.19883883	     68.76084140	    118.86094635	     89.58490960
      0.15000000	     -1.70812742	     -1.51506456	      5.32299265	      0.48259151	      0.84224469	      0.39494590	      7.57770707	      1.44373661	      0.80839159	      9.50539166	      0.16590038	     16.06917843	     -6.13533450	     -7.27872779	      3.63034387	      2.81496428	     -3.89945613	      1.79569015	      0.03134071	     10.75432362	     -2.61287925	     -7.27872779	      7.88192969	      3.92621040	      6.81016025	     33.73503374	      4.47706266	     58.86507630	    125.83502910	     97.83904909	     29.93738542	      5.74171204	     68.59296347	    118.65374063	     89.49285718
      0.16666670	     -1.56972305	     -1.51986309	      5.47679563	      0.48252967	      0.83971658	      0.39463496	      7.43095685	      1.31006898	      0.68682756	      9.40546114	      0.16415626	     15.84583113	     -6.33952033	     -7.34514259	      3.55220172	      2.95585855	     -3.38269079	      1.63672397	      0.02856622	     10.24034522	     -3.34530145	     -7.34514259	      7.77975592	      4.03162531	      6.55397696	     34.18273816	      4.27821550	     58.97096750	    126.08032809	     92.94933527	     29.71244880	      6.21381266	     67.88026926	    117.97717989	     84.94583405
